<svg width="34" height="34" viewBox="0 0 34 34" fill="none" xmlns="http://www.w3.org/2000/svg">
<path fill-rule="evenodd" clip-rule="evenodd" d="M17.7994 17.7896L18.0487 17.5382C19.0332 16.5365 19.8594 15.5905 20.3177 14.9258C20.3278 14.9156 20.7721 14.2461 20.8857 13.989C21.041 13.6084 21.0648 13.1774 20.9536 12.7779C20.852 12.4707 20.6897 12.2041 20.4653 11.9796C20.2806 11.8113 19.9008 11.6091 19.6187 11.4759L19.3799 11.3694C17.7827 10.6803 14.1136 9.9788 12.3692 10.0493L12.2441 10.051L11.6715 10.0728C11.2705 10.1267 10.9006 10.3129 10.6015 10.612C10.3336 10.88 10.1474 11.2297 10.0944 11.6098C10.0732 11.7289 10.0621 11.8977 10.0562 12.044L10.0437 12.5926C10.0315 14.4495 10.7178 17.7576 11.3186 19.2271C11.3092 19.2365 11.6839 20.1485 11.98 20.4649L12.0209 20.5058C12.4906 20.9755 13.1975 21.1465 13.855 20.9379C14.0347 20.8808 14.3255 20.7077 14.5739 20.5488L15.0389 20.2446C15.7491 19.718 16.7588 18.8302 17.7994 17.7896ZM21.1983 23.3452C21.7853 23.9322 22.7418 23.9276 23.3346 23.3348C23.9273 22.7421 23.932 21.7856 23.3449 21.1985L20.4979 18.8141C20.0373 18.3536 19.2878 18.3565 18.822 18.8223C18.357 19.2873 18.3534 20.0376 18.8139 20.4981L21.1983 23.3452Z" fill="#130F26"/>
</svg>
